<svg xmlns="http://www.w3.org/2000/svg" width="700" height="400"><path fill="#fff" d="M0 0h700v400H0z"/><path fill="none" d="M603 50h84v34h-84z"/><path fill="none" d="M603 50h84v13h-84z"/><text x="634" y="61.05" fill="#222" stroke-width="0" font-family="Arial" font-size="13">ns/op</text><path fill="#36c" d="M603 50h26v13h-26z"/><g><path fill="none" d="M603 71h84v13h-84z"/><text x="634" y="82.05" fill="#222" stroke-width="0" font-family="Arial" font-size="13">B/op</text><path fill="#dc3912" d="M603 71h26v13h-26z"/></g><g><path fill="none" d="M100 50h490v300H100z"/><g><path fill="#ccc" d="M100 349h490v1H100zM100 274h490v1H100zM100 200h490v1H100zM100 125h490v1H100zM100 50h490v1H100z"/><path fill="#ebebeb" d="M100 324h490v1H100zM100 299h490v1H100zM100 249h490v1H100zM100 224h490v1H100zM100 175h490v1H100zM100 150h490v1H100zM100 100h490v1H100zM100 75h490v1H100z"/><g><path fill="#36c" d="M124 209h37v140h-37zM246 118h37v231h-37zM368 236h38v113h-38zM491 152h37v197h-37z"/><path fill="#dc3912" d="M162 307h37v42h-37zM284 305h38v44h-38zM407 307h37v42h-37zM529 307h37v42h-37z"/></g><g><path fill="#333" d="M100 349h490v1H100z"/></g></g><text x="161.625" y="369.05" fill="#222" stroke-width="0" font-family="Input" font-size="13" font-weight="bold" text-anchor="middle">jettison</text><text x="283.875" y="369.05" fill="#222" stroke-width="0" font-family="Input" font-size="13" font-weight="bold" text-anchor="middle">jsoniter</text><text x="406.125" y="369.05" fill="#222" stroke-width="0" font-family="Input" font-size="13" font-weight="bold" text-anchor="middle">segmentj</text><text x="528.375" y="369.05" fill="#222" stroke-width="0" font-family="Input" font-size="13" font-weight="bold" text-anchor="middle">standard</text><text x="87" y="354.05" fill="#444" stroke-width="0" font-family="Arial" font-size="13" text-anchor="end">0</text><text x="87" y="279.3" fill="#444" stroke-width="0" font-family="Arial" font-size="13" text-anchor="end">250</text><text x="87" y="204.55" fill="#444" stroke-width="0" font-family="Arial" font-size="13" text-anchor="end">500</text><text x="87" y="129.8" fill="#444" stroke-width="0" font-family="Arial" font-size="13" text-anchor="end">750</text><text x="87" y="55.05" fill="#444" stroke-width="0" font-family="Arial" font-size="13" text-anchor="end">1000</text></g></svg>